<?xml version="1.0" encoding="utf-8"?>
<svg xmlns="http://www.w3.org/2000/svg" xmlns:xlink="http://www.w3.org/1999/xlink" width="600" height="400" viewBox="0 0 2400 1600">
<defs>
  <clipPath id="clip730">
    <rect x="0" y="0" width="2400" height="1600"/>
  </clipPath>
</defs>
<path clip-path="url(#clip730)" d="M0 1600 L2400 1600 L2400 0 L0 0  Z" fill="#ffffff" fill-rule="evenodd" fill-opacity="1"/>
<defs>
  <clipPath id="clip731">
    <rect x="480" y="0" width="1681" height="1600"/>
  </clipPath>
</defs>
<path clip-path="url(#clip730)" d="M149.191 1486.45 L2352.76 1486.45 L2352.76 47.2441 L149.191 47.2441  Z" fill="#ffffff" fill-rule="evenodd" fill-opacity="1"/>
<defs>
  <clipPath id="clip732">
    <rect x="149" y="47" width="2205" height="1440"/>
  </clipPath>
</defs>
<polyline clip-path="url(#clip732)" style="stroke:#000000; stroke-linecap:round; stroke-linejoin:round; stroke-width:2; stroke-opacity:0.1; fill:none" points="190.558,1486.45 190.558,47.2441 "/>
<polyline clip-path="url(#clip732)" style="stroke:#000000; stroke-linecap:round; stroke-linejoin:round; stroke-width:2; stroke-opacity:0.1; fill:none" points="715.516,1486.45 715.516,47.2441 "/>
<polyline clip-path="url(#clip732)" style="stroke:#000000; stroke-linecap:round; stroke-linejoin:round; stroke-width:2; stroke-opacity:0.1; fill:none" points="1240.47,1486.45 1240.47,47.2441 "/>
<polyline clip-path="url(#clip732)" style="stroke:#000000; stroke-linecap:round; stroke-linejoin:round; stroke-width:2; stroke-opacity:0.1; fill:none" points="1765.43,1486.45 1765.43,47.2441 "/>
<polyline clip-path="url(#clip732)" style="stroke:#000000; stroke-linecap:round; stroke-linejoin:round; stroke-width:2; stroke-opacity:0.1; fill:none" points="2290.39,1486.45 2290.39,47.2441 "/>
<polyline clip-path="url(#clip730)" style="stroke:#000000; stroke-linecap:round; stroke-linejoin:round; stroke-width:4; stroke-opacity:1; fill:none" points="149.191,1486.45 2352.76,1486.45 "/>
<polyline clip-path="url(#clip730)" style="stroke:#000000; stroke-linecap:round; stroke-linejoin:round; stroke-width:4; stroke-opacity:1; fill:none" points="190.558,1486.45 190.558,1467.55 "/>
<polyline clip-path="url(#clip730)" style="stroke:#000000; stroke-linecap:round; stroke-linejoin:round; stroke-width:4; stroke-opacity:1; fill:none" points="715.516,1486.45 715.516,1467.55 "/>
<polyline clip-path="url(#clip730)" style="stroke:#000000; stroke-linecap:round; stroke-linejoin:round; stroke-width:4; stroke-opacity:1; fill:none" points="1240.47,1486.45 1240.47,1467.55 "/>
<polyline clip-path="url(#clip730)" style="stroke:#000000; stroke-linecap:round; stroke-linejoin:round; stroke-width:4; stroke-opacity:1; fill:none" points="1765.43,1486.45 1765.43,1467.55 "/>
<polyline clip-path="url(#clip730)" style="stroke:#000000; stroke-linecap:round; stroke-linejoin:round; stroke-width:4; stroke-opacity:1; fill:none" points="2290.39,1486.45 2290.39,1467.55 "/>
<path clip-path="url(#clip730)" d="M190.558 1517.37 Q186.946 1517.37 185.118 1520.93 Q183.312 1524.47 183.312 1531.6 Q183.312 1538.71 185.118 1542.27 Q186.946 1545.82 190.558 1545.82 Q194.192 1545.82 195.997 1542.27 Q197.826 1538.71 197.826 1531.6 Q197.826 1524.47 195.997 1520.93 Q194.192 1517.37 190.558 1517.37 M190.558 1513.66 Q196.368 1513.66 199.423 1518.27 Q202.502 1522.85 202.502 1531.6 Q202.502 1540.33 199.423 1544.94 Q196.368 1549.52 190.558 1549.52 Q184.747 1549.52 181.669 1544.94 Q178.613 1540.33 178.613 1531.6 Q178.613 1522.85 181.669 1518.27 Q184.747 1513.66 190.558 1513.66 Z" fill="#000000" fill-rule="evenodd" fill-opacity="1" /><path clip-path="url(#clip730)" d="M694.787 1544.91 L711.106 1544.91 L711.106 1548.85 L689.162 1548.85 L689.162 1544.91 Q691.824 1542.16 696.407 1537.53 Q701.014 1532.88 702.194 1531.53 Q704.44 1529.01 705.319 1527.27 Q706.222 1525.51 706.222 1523.82 Q706.222 1521.07 704.278 1519.33 Q702.356 1517.6 699.254 1517.6 Q697.055 1517.6 694.602 1518.36 Q692.171 1519.13 689.393 1520.68 L689.393 1515.95 Q692.217 1514.82 694.671 1514.24 Q697.125 1513.66 699.162 1513.66 Q704.532 1513.66 707.727 1516.35 Q710.921 1519.03 710.921 1523.52 Q710.921 1525.65 710.111 1527.57 Q709.324 1529.47 707.217 1532.07 Q706.639 1532.74 703.537 1535.95 Q700.435 1539.15 694.787 1544.91 Z" fill="#000000" fill-rule="evenodd" fill-opacity="1" /><path clip-path="url(#clip730)" d="M720.967 1514.29 L739.324 1514.29 L739.324 1518.22 L725.25 1518.22 L725.25 1526.7 Q726.268 1526.35 727.287 1526.19 Q728.305 1526 729.324 1526 Q735.111 1526 738.49 1529.17 Q741.87 1532.34 741.87 1537.76 Q741.87 1543.34 738.398 1546.44 Q734.926 1549.52 728.606 1549.52 Q726.43 1549.52 724.162 1549.15 Q721.916 1548.78 719.509 1548.04 L719.509 1543.34 Q721.592 1544.47 723.814 1545.03 Q726.037 1545.58 728.514 1545.58 Q732.518 1545.58 734.856 1543.48 Q737.194 1541.37 737.194 1537.76 Q737.194 1534.15 734.856 1532.04 Q732.518 1529.94 728.514 1529.94 Q726.639 1529.94 724.764 1530.35 Q722.912 1530.77 720.967 1531.65 L720.967 1514.29 Z" fill="#000000" fill-rule="evenodd" fill-opacity="1" /><path clip-path="url(#clip730)" d="M1215.17 1514.29 L1233.53 1514.29 L1233.53 1518.22 L1219.46 1518.22 L1219.46 1526.7 Q1220.47 1526.35 1221.49 1526.19 Q1222.51 1526 1223.53 1526 Q1229.32 1526 1232.7 1529.17 Q1236.08 1532.34 1236.08 1537.76 Q1236.08 1543.34 1232.6 1546.44 Q1229.13 1549.52 1222.81 1549.52 Q1220.64 1549.52 1218.37 1549.15 Q1216.12 1548.78 1213.72 1548.04 L1213.72 1543.34 Q1215.8 1544.47 1218.02 1545.03 Q1220.24 1545.58 1222.72 1545.58 Q1226.72 1545.58 1229.06 1543.48 Q1231.4 1541.37 1231.4 1537.76 Q1231.4 1534.15 1229.06 1532.04 Q1226.72 1529.94 1222.72 1529.94 Q1220.84 1529.94 1218.97 1530.35 Q1217.12 1530.77 1215.17 1531.65 L1215.17 1514.29 Z" fill="#000000" fill-rule="evenodd" fill-opacity="1" /><path clip-path="url(#clip730)" d="M1255.29 1517.37 Q1251.68 1517.37 1249.85 1520.93 Q1248.04 1524.47 1248.04 1531.6 Q1248.04 1538.71 1249.85 1542.27 Q1251.68 1545.82 1255.29 1545.82 Q1258.92 1545.82 1260.73 1542.27 Q1262.56 1538.71 1262.56 1531.6 Q1262.56 1524.47 1260.73 1520.93 Q1258.92 1517.37 1255.29 1517.37 M1255.29 1513.66 Q1261.1 1513.66 1264.15 1518.27 Q1267.23 1522.85 1267.23 1531.6 Q1267.23 1540.33 1264.15 1544.94 Q1261.1 1549.52 1255.29 1549.52 Q1249.48 1549.52 1246.4 1544.94 Q1243.34 1540.33 1243.34 1531.6 Q1243.34 1522.85 1246.4 1518.27 Q1249.48 1513.66 1255.29 1513.66 Z" fill="#000000" fill-rule="evenodd" fill-opacity="1" /><path clip-path="url(#clip730)" d="M1739.29 1514.29 L1761.51 1514.29 L1761.51 1516.28 L1748.96 1548.85 L1744.08 1548.85 L1755.88 1518.22 L1739.29 1518.22 L1739.29 1514.29 Z" fill="#000000" fill-rule="evenodd" fill-opacity="1" /><path clip-path="url(#clip730)" d="M1770.68 1514.29 L1789.03 1514.29 L1789.03 1518.22 L1774.96 1518.22 L1774.96 1526.7 Q1775.98 1526.35 1776.99 1526.19 Q1778.01 1526 1779.03 1526 Q1784.82 1526 1788.2 1529.17 Q1791.58 1532.34 1791.58 1537.76 Q1791.58 1543.34 1788.11 1546.44 Q1784.63 1549.52 1778.31 1549.52 Q1776.14 1549.52 1773.87 1549.15 Q1771.62 1548.78 1769.22 1548.04 L1769.22 1543.34 Q1771.3 1544.47 1773.52 1545.03 Q1775.74 1545.58 1778.22 1545.58 Q1782.23 1545.58 1784.56 1543.48 Q1786.9 1541.37 1786.9 1537.76 Q1786.9 1534.15 1784.56 1532.04 Q1782.23 1529.94 1778.22 1529.94 Q1776.35 1529.94 1774.47 1530.35 Q1772.62 1530.77 1770.68 1531.65 L1770.68 1514.29 Z" fill="#000000" fill-rule="evenodd" fill-opacity="1" /><path clip-path="url(#clip730)" d="M2250 1544.91 L2257.64 1544.91 L2257.64 1518.55 L2249.33 1520.21 L2249.33 1515.95 L2257.59 1514.29 L2262.27 1514.29 L2262.27 1544.91 L2269.9 1544.91 L2269.9 1548.85 L2250 1548.85 L2250 1544.91 Z" fill="#000000" fill-rule="evenodd" fill-opacity="1" /><path clip-path="url(#clip730)" d="M2289.35 1517.37 Q2285.74 1517.37 2283.91 1520.93 Q2282.1 1524.47 2282.1 1531.6 Q2282.1 1538.71 2283.91 1542.27 Q2285.74 1545.82 2289.35 1545.82 Q2292.98 1545.82 2294.79 1542.27 Q2296.62 1538.71 2296.62 1531.6 Q2296.62 1524.47 2294.79 1520.93 Q2292.98 1517.37 2289.35 1517.37 M2289.35 1513.66 Q2295.16 1513.66 2298.21 1518.27 Q2301.29 1522.85 2301.29 1531.6 Q2301.29 1540.33 2298.21 1544.94 Q2295.16 1549.52 2289.35 1549.52 Q2283.54 1549.52 2280.46 1544.94 Q2277.4 1540.33 2277.4 1531.6 Q2277.4 1522.85 2280.46 1518.27 Q2283.54 1513.66 2289.35 1513.66 Z" fill="#000000" fill-rule="evenodd" fill-opacity="1" /><path clip-path="url(#clip730)" d="M2319.51 1517.37 Q2315.9 1517.37 2314.07 1520.93 Q2312.27 1524.47 2312.27 1531.6 Q2312.27 1538.71 2314.07 1542.27 Q2315.9 1545.82 2319.51 1545.82 Q2323.15 1545.82 2324.95 1542.27 Q2326.78 1538.71 2326.78 1531.6 Q2326.78 1524.47 2324.95 1520.93 Q2323.15 1517.37 2319.51 1517.37 M2319.51 1513.66 Q2325.32 1513.66 2328.38 1518.27 Q2331.46 1522.85 2331.46 1531.6 Q2331.46 1540.33 2328.38 1544.94 Q2325.32 1549.52 2319.51 1549.52 Q2313.7 1549.52 2310.62 1544.94 Q2307.57 1540.33 2307.57 1531.6 Q2307.57 1522.85 2310.62 1518.27 Q2313.7 1513.66 2319.51 1513.66 Z" fill="#000000" fill-rule="evenodd" fill-opacity="1" /><polyline clip-path="url(#clip732)" style="stroke:#000000; stroke-linecap:round; stroke-linejoin:round; stroke-width:2; stroke-opacity:0.1; fill:none" points="149.191,1463.63 2352.76,1463.63 "/>
<polyline clip-path="url(#clip732)" style="stroke:#000000; stroke-linecap:round; stroke-linejoin:round; stroke-width:2; stroke-opacity:0.1; fill:none" points="149.191,1249.74 2352.76,1249.74 "/>
<polyline clip-path="url(#clip732)" style="stroke:#000000; stroke-linecap:round; stroke-linejoin:round; stroke-width:2; stroke-opacity:0.1; fill:none" points="149.191,1035.84 2352.76,1035.84 "/>
<polyline clip-path="url(#clip732)" style="stroke:#000000; stroke-linecap:round; stroke-linejoin:round; stroke-width:2; stroke-opacity:0.1; fill:none" points="149.191,821.952 2352.76,821.952 "/>
<polyline clip-path="url(#clip732)" style="stroke:#000000; stroke-linecap:round; stroke-linejoin:round; stroke-width:2; stroke-opacity:0.1; fill:none" points="149.191,608.059 2352.76,608.059 "/>
<polyline clip-path="url(#clip732)" style="stroke:#000000; stroke-linecap:round; stroke-linejoin:round; stroke-width:2; stroke-opacity:0.1; fill:none" points="149.191,394.166 2352.76,394.166 "/>
<polyline clip-path="url(#clip732)" style="stroke:#000000; stroke-linecap:round; stroke-linejoin:round; stroke-width:2; stroke-opacity:0.1; fill:none" points="149.191,180.273 2352.76,180.273 "/>
<polyline clip-path="url(#clip730)" style="stroke:#000000; stroke-linecap:round; stroke-linejoin:round; stroke-width:4; stroke-opacity:1; fill:none" points="149.191,1486.45 149.191,47.2441 "/>
<polyline clip-path="url(#clip730)" style="stroke:#000000; stroke-linecap:round; stroke-linejoin:round; stroke-width:4; stroke-opacity:1; fill:none" points="149.191,1463.63 168.089,1463.63 "/>
<polyline clip-path="url(#clip730)" style="stroke:#000000; stroke-linecap:round; stroke-linejoin:round; stroke-width:4; stroke-opacity:1; fill:none" points="149.191,1249.74 168.089,1249.74 "/>
<polyline clip-path="url(#clip730)" style="stroke:#000000; stroke-linecap:round; stroke-linejoin:round; stroke-width:4; stroke-opacity:1; fill:none" points="149.191,1035.84 168.089,1035.84 "/>
<polyline clip-path="url(#clip730)" style="stroke:#000000; stroke-linecap:round; stroke-linejoin:round; stroke-width:4; stroke-opacity:1; fill:none" points="149.191,821.952 168.089,821.952 "/>
<polyline clip-path="url(#clip730)" style="stroke:#000000; stroke-linecap:round; stroke-linejoin:round; stroke-width:4; stroke-opacity:1; fill:none" points="149.191,608.059 168.089,608.059 "/>
<polyline clip-path="url(#clip730)" style="stroke:#000000; stroke-linecap:round; stroke-linejoin:round; stroke-width:4; stroke-opacity:1; fill:none" points="149.191,394.166 168.089,394.166 "/>
<polyline clip-path="url(#clip730)" style="stroke:#000000; stroke-linecap:round; stroke-linejoin:round; stroke-width:4; stroke-opacity:1; fill:none" points="149.191,180.273 168.089,180.273 "/>
<path clip-path="url(#clip730)" d="M50.9921 1464.08 L80.6679 1464.08 L80.6679 1468.02 L50.9921 1468.02 L50.9921 1464.08 Z" fill="#000000" fill-rule="evenodd" fill-opacity="1" /><path clip-path="url(#clip730)" d="M103.608 1450.42 L91.8021 1468.87 L103.608 1468.87 L103.608 1450.42 M102.381 1446.35 L108.26 1446.35 L108.26 1468.87 L113.191 1468.87 L113.191 1472.76 L108.26 1472.76 L108.26 1480.91 L103.608 1480.91 L103.608 1472.76 L88.0058 1472.76 L88.0058 1468.25 L102.381 1446.35 Z" fill="#000000" fill-rule="evenodd" fill-opacity="1" /><path clip-path="url(#clip730)" d="M52.1264 1250.19 L81.8021 1250.19 L81.8021 1254.12 L52.1264 1254.12 L52.1264 1250.19 Z" fill="#000000" fill-rule="evenodd" fill-opacity="1" /><path clip-path="url(#clip730)" d="M106.061 1248.38 Q109.418 1249.1 111.293 1251.37 Q113.191 1253.64 113.191 1256.97 Q113.191 1262.09 109.672 1264.89 Q106.154 1267.69 99.6724 1267.69 Q97.4965 1267.69 95.1817 1267.25 Q92.89 1266.83 90.4364 1265.98 L90.4364 1261.46 Q92.3808 1262.6 94.6956 1263.17 Q97.0104 1263.75 99.5335 1263.75 Q103.932 1263.75 106.223 1262.02 Q108.538 1260.28 108.538 1256.97 Q108.538 1253.92 106.385 1252.2 Q104.256 1250.47 100.436 1250.47 L96.4085 1250.47 L96.4085 1246.62 L100.621 1246.62 Q104.071 1246.62 105.899 1245.26 Q107.728 1243.87 107.728 1241.28 Q107.728 1238.61 105.83 1237.2 Q103.955 1235.77 100.436 1235.77 Q98.515 1235.77 96.316 1236.18 Q94.1169 1236.6 91.478 1237.48 L91.478 1233.31 Q94.14 1232.57 96.4548 1232.2 Q98.7928 1231.83 100.853 1231.83 Q106.177 1231.83 109.279 1234.26 Q112.381 1236.67 112.381 1240.79 Q112.381 1243.66 110.737 1245.65 Q109.094 1247.62 106.061 1248.38 Z" fill="#000000" fill-rule="evenodd" fill-opacity="1" /><path clip-path="url(#clip730)" d="M53.0754 1036.3 L82.7512 1036.3 L82.7512 1040.23 L53.0754 1040.23 L53.0754 1036.3 Z" fill="#000000" fill-rule="evenodd" fill-opacity="1" /><path clip-path="url(#clip730)" d="M96.8715 1049.19 L113.191 1049.19 L113.191 1053.12 L91.2465 1053.12 L91.2465 1049.19 Q93.9086 1046.43 98.4919 1041.81 Q103.098 1037.15 104.279 1035.81 Q106.524 1033.29 107.404 1031.55 Q108.307 1029.79 108.307 1028.1 Q108.307 1025.35 106.362 1023.61 Q104.441 1021.87 101.339 1021.87 Q99.14 1021.87 96.6863 1022.64 Q94.2558 1023.4 91.478 1024.95 L91.478 1020.23 Q94.3021 1019.1 96.7558 1018.52 Q99.2095 1017.94 101.246 1017.94 Q106.617 1017.94 109.811 1020.62 Q113.006 1023.31 113.006 1027.8 Q113.006 1029.93 112.196 1031.85 Q111.408 1033.75 109.302 1036.34 Q108.723 1037.01 105.621 1040.23 Q102.52 1043.43 96.8715 1049.19 Z" fill="#000000" fill-rule="evenodd" fill-opacity="1" /><path clip-path="url(#clip730)" d="M52.7051 822.403 L82.3808 822.403 L82.3808 826.338 L52.7051 826.338 L52.7051 822.403 Z" fill="#000000" fill-rule="evenodd" fill-opacity="1" /><path clip-path="url(#clip730)" d="M93.2836 835.297 L100.922 835.297 L100.922 808.931 L92.6123 810.598 L92.6123 806.339 L100.876 804.672 L105.552 804.672 L105.552 835.297 L113.191 835.297 L113.191 839.232 L93.2836 839.232 L93.2836 835.297 Z" fill="#000000" fill-rule="evenodd" fill-opacity="1" /><path clip-path="url(#clip730)" d="M101.246 593.858 Q97.6354 593.858 95.8067 597.423 Q94.0012 600.964 94.0012 608.094 Q94.0012 615.2 95.8067 618.765 Q97.6354 622.307 101.246 622.307 Q104.881 622.307 106.686 618.765 Q108.515 615.2 108.515 608.094 Q108.515 600.964 106.686 597.423 Q104.881 593.858 101.246 593.858 M101.246 590.154 Q107.057 590.154 110.112 594.761 Q113.191 599.344 113.191 608.094 Q113.191 616.821 110.112 621.427 Q107.057 626.01 101.246 626.01 Q95.4363 626.01 92.3576 621.427 Q89.3021 616.821 89.3021 608.094 Q89.3021 599.344 92.3576 594.761 Q95.4363 590.154 101.246 590.154 Z" fill="#000000" fill-rule="evenodd" fill-opacity="1" /><path clip-path="url(#clip730)" d="M93.2836 407.511 L100.922 407.511 L100.922 381.145 L92.6123 382.812 L92.6123 378.553 L100.876 376.886 L105.552 376.886 L105.552 407.511 L113.191 407.511 L113.191 411.446 L93.2836 411.446 L93.2836 407.511 Z" fill="#000000" fill-rule="evenodd" fill-opacity="1" /><path clip-path="url(#clip730)" d="M96.8715 193.618 L113.191 193.618 L113.191 197.553 L91.2465 197.553 L91.2465 193.618 Q93.9086 190.864 98.4919 186.234 Q103.098 181.581 104.279 180.239 Q106.524 177.716 107.404 175.979 Q108.307 174.22 108.307 172.53 Q108.307 169.776 106.362 168.04 Q104.441 166.304 101.339 166.304 Q99.14 166.304 96.6863 167.067 Q94.2558 167.831 91.478 169.382 L91.478 164.66 Q94.3021 163.526 96.7558 162.947 Q99.2095 162.368 101.246 162.368 Q106.617 162.368 109.811 165.054 Q113.006 167.739 113.006 172.23 Q113.006 174.359 112.196 176.28 Q111.408 178.179 109.302 180.771 Q108.723 181.442 105.621 184.66 Q102.52 187.854 96.8715 193.618 Z" fill="#000000" fill-rule="evenodd" fill-opacity="1" /><polyline clip-path="url(#clip732)" style="stroke:#009af9; stroke-linecap:round; stroke-linejoin:round; stroke-width:4; stroke-opacity:1; fill:none" points="211.556,153.723 232.554,329.741 253.553,1043.4 274.551,1402.13 295.549,1445.72 316.548,636.476 337.546,561.482 358.544,693.651 379.543,963.361 400.541,834.153 421.539,773.958 442.538,617.523 463.536,520.121 484.534,889.585 505.533,868.485 526.531,366.739 547.529,548.523 568.528,757.29 589.526,962.106 610.524,785.058 631.523,648.9 652.521,709.224 673.519,476.684 694.518,620.753 715.516,773.612 736.514,589.607 757.513,834.319 778.511,800.72 799.509,769.575 820.508,391.228 841.506,291.388 862.504,615.905 883.503,706.414 904.501,446.751 925.499,539.93 946.498,287.636 967.496,786.905 988.494,702.179 1009.49,772.067 1030.49,639.868 1051.49,602.321 1072.49,314.966 1093.49,768.637 1114.48,771.977 1135.48,536.552 1156.48,304.146 1177.48,496.827 1198.48,528.695 1219.48,321.695 1240.47,388.163 1261.47,536.317 1282.47,397.48 1303.47,273.58 1324.47,666.033 1345.47,562.303 1366.46,324.733 1387.46,100.24 1408.46,289.351 1429.46,464.626 1450.46,681.112 1471.46,418.735 1492.45,262.907 1513.45,87.9763 1534.45,617.253 1555.45,853.645 1576.45,807.852 1597.45,309.304 1618.44,139.157 1639.44,390.709 1660.44,640.443 1681.44,653.011 1702.44,670.84 1723.44,1132.1 1744.43,681.735 1765.43,721.159 1786.43,795.295 1807.43,896.578 1828.43,650.643 1849.43,323.089 1870.42,404.36 1891.42,479.29 1912.42,468.492 1933.42,667.027 1954.42,540.04 1975.42,1008.61 1996.41,708.277 2017.41,517.644 2038.41,423.898 2059.41,393.724 2080.41,295.028 2101.41,624.573 2122.4,696.598 2143.4,644.2 2164.4,619.989 2185.4,909.319 2206.4,485.267 2227.4,673.481 2248.39,304.612 2269.39,101.827 2290.39,476.314 "/>
<path clip-path="url(#clip730)" d="M2006.52 1438.47 L2279.3 1438.47 L2279.3 1334.79 L2006.52 1334.79  Z" fill="#ffffff" fill-rule="evenodd" fill-opacity="1"/>
<polyline clip-path="url(#clip730)" style="stroke:#000000; stroke-linecap:round; stroke-linejoin:round; stroke-width:4; stroke-opacity:1; fill:none" points="2006.52,1438.47 2279.3,1438.47 2279.3,1334.79 2006.52,1334.79 2006.52,1438.47 "/>
<polyline clip-path="url(#clip730)" style="stroke:#009af9; stroke-linecap:round; stroke-linejoin:round; stroke-width:4; stroke-opacity:1; fill:none" points="2031,1386.63 2177.91,1386.63 "/>
<path clip-path="url(#clip730)" d="M2216.23 1406.32 Q2214.43 1410.95 2212.71 1412.36 Q2211 1413.78 2208.13 1413.78 L2204.73 1413.78 L2204.73 1410.21 L2207.23 1410.21 Q2208.99 1410.21 2209.96 1409.38 Q2210.93 1408.54 2212.11 1405.44 L2212.88 1403.5 L2202.39 1377.99 L2206.9 1377.99 L2215.01 1398.27 L2223.11 1377.99 L2227.62 1377.99 L2216.23 1406.32 Z" fill="#000000" fill-rule="evenodd" fill-opacity="1" /><path clip-path="url(#clip730)" d="M2234.91 1399.98 L2242.55 1399.98 L2242.55 1373.61 L2234.24 1375.28 L2234.24 1371.02 L2242.5 1369.35 L2247.18 1369.35 L2247.18 1399.98 L2254.82 1399.98 L2254.82 1403.91 L2234.91 1403.91 L2234.91 1399.98 Z" fill="#000000" fill-rule="evenodd" fill-opacity="1" /></svg>
